# xmcd
#
# Track frame offsets:
#	150
#	21305
#	43395
#	62190
#	81957
#	102202
#	123900
#	144952
#	166130
#	185745
#	207450
#	228570
#
# Disc length: 3351 seconds
#
# Revision: 5
# Processed by: cddbd v1.5.2PL0 Copyright (c) Steve Scherf et al.
# Submitted via: EasyCDDAExtractor 15.3.0.1
#
DISCID=ac0d150c
DTITLE=Manny Manuel - Autentico
DYEAR=1996
DGENRE=Latin
TTITLE0=Y Se Que Vas A Llorar
TTITLE1=Mi Primer Beso
TTITLE2=Y Lloras Por Mi
TTITLE3=En Este Momento
TTITLE4=Se Va Se Va
TTITLE5=Parece Mentira
TTITLE6=Si No Fui Yo
TTITLE7=Un Amor En El Olvido
TTITLE8=Loba Feroz
TTITLE9=Yo
TTITLE10=A Quien Vas A Engañar
TTITLE11=Payaso
EXTD=
EXTT0=
EXTT1=
EXTT2=
EXTT3=
EXTT4=
EXTT5=
EXTT6=
EXTT7=
EXTT8=
EXTT9=
EXTT10=
EXTT11=
PLAYORDER=
